<svg xmlns="http://www.w3.org/2000/svg" height="512pt" version="1.1" viewBox="0 0 512 512" width="512pt">
<g id="surface1">
<path d="M 512 256 C 512 397.386719 397.386719 512 256 512 C 114.613281 512 0 397.386719 0 256 C 0 114.613281 114.613281 0 256 0 C 397.386719 0 512 114.613281 512 256 Z M 512 256 " style=" stroke:none;fill-rule:nonzero;fill:rgb(39.215686%,88.235294%,86.27451%);fill-opacity:1;" />
<path d="M 504.382812 318.160156 L 412.386719 226.160156 L 408.183594 232.625 L 326.824219 151.265625 L 319.675781 164.40625 L 259.894531 104.625 L 175.402344 104.625 L 97.097656 402.871094 L 200.085938 505.859375 C 218.085938 509.867188 236.792969 512 256 512 C 375.945312 512 476.609375 429.503906 504.382812 318.160156 Z M 504.382812 318.160156 " style=" stroke:none;fill-rule:nonzero;fill:rgb(0%,78.431373%,78.431373%);fill-opacity:1;" />
<path d="M 97.097656 151.265625 L 326.824219 151.265625 L 326.824219 402.871094 L 97.097656 402.871094 Z M 97.097656 151.265625 " style=" stroke:none;fill-rule:nonzero;fill:rgb(100%,27.45098%,54.901961%);fill-opacity:1;" />
<path d="M 209.929688 151.265625 L 326.824219 151.265625 L 326.824219 402.871094 L 209.929688 402.871094 Z M 209.929688 151.265625 " style=" stroke:none;fill-rule:nonzero;fill:rgb(84.313725%,15.686275%,47.058824%);fill-opacity:1;" />
<path d="M 274.441406 193.371094 L 242.441406 193.371094 L 242.441406 145.25 C 242.441406 127.539062 228.03125 113.128906 210.320312 113.128906 C 192.609375 113.128906 178.199219 127.539062 178.199219 145.25 L 178.199219 193.371094 L 146.199219 193.371094 L 146.199219 145.25 C 146.199219 109.894531 174.964844 81.128906 210.320312 81.128906 C 245.675781 81.128906 274.441406 109.894531 274.441406 145.25 Z M 274.441406 193.371094 " style=" stroke:none;fill-rule:nonzero;fill:rgb(100%,100%,100%);fill-opacity:1;" />
<path d="M 210.320312 81.128906 C 210.1875 81.128906 210.058594 81.136719 209.929688 81.136719 L 209.929688 113.136719 C 210.058594 113.136719 210.1875 113.128906 210.320312 113.128906 C 228.03125 113.128906 242.441406 127.539062 242.441406 145.25 L 242.441406 193.371094 L 274.441406 193.371094 L 274.441406 145.25 C 274.441406 109.894531 245.679688 81.128906 210.320312 81.128906 Z M 210.320312 81.128906 " style=" stroke:none;fill-rule:nonzero;fill:rgb(86.27451%,88.235294%,92.156863%);fill-opacity:1;" />
<path d="M 251.042969 226.160156 L 412.386719 226.160156 L 412.386719 402.871094 L 251.042969 402.871094 Z M 251.042969 226.160156 " style=" stroke:none;fill-rule:nonzero;fill:rgb(47.843137%,24.313725%,70.980392%);fill-opacity:1;" />
<path d="M 330.761719 226.160156 L 412.386719 226.160156 L 412.386719 402.871094 L 330.761719 402.871094 Z M 330.761719 226.160156 " style=" stroke:none;fill-rule:nonzero;fill:rgb(38.039216%,20%,58.039216%);fill-opacity:1;" />
<path d="M 375.859375 255.734375 L 352.859375 255.734375 L 352.859375 221.9375 C 352.859375 209.640625 342.855469 199.640625 330.5625 199.640625 C 318.265625 199.640625 308.265625 209.640625 308.265625 221.9375 L 308.265625 255.734375 L 285.265625 255.734375 L 285.265625 221.9375 C 285.265625 196.960938 305.585938 176.640625 330.5625 176.640625 C 355.539062 176.640625 375.859375 196.960938 375.859375 221.9375 Z M 375.859375 255.734375 " style=" stroke:none;fill-rule:nonzero;fill:rgb(100%,100%,100%);fill-opacity:1;" />
<path d="M 330.761719 176.644531 L 330.761719 199.644531 C 342.964844 199.753906 352.859375 209.707031 352.859375 221.9375 L 352.859375 255.734375 L 375.859375 255.734375 L 375.859375 221.9375 C 375.859375 197.027344 355.648438 176.753906 330.761719 176.644531 Z M 330.761719 176.644531 " style=" stroke:none;fill-rule:nonzero;fill:rgb(86.27451%,88.235294%,92.156863%);fill-opacity:1;" />
</g>
</svg>